<svg width="100" height="100" viewBox="0 0 100 100" fill="none" xmlns="http://www.w3.org/2000/svg">
<g clip-path="url(#clip0_533_15)">
<path d="M7 7.53992H8.14815C8.21605 7.26869 8.33488 7.03042 8.50463 6.8251C8.6713 6.61977 8.875 6.4474 9.11574 6.30799C9.3534 6.16603 9.61728 6.05957 9.90741 5.98859C10.1975 5.91762 10.5 5.88213 10.8148 5.88213C11.3889 5.88213 11.909 6.00127 12.375 6.23954C12.838 6.47782 13.2068 6.8289 13.4815 7.29278C13.7531 7.75665 13.8889 8.32573 13.8889 9C13.8889 9.67427 13.7531 10.2433 13.4815 10.7072C13.2068 11.1711 12.838 11.5222 12.375 11.7605C11.909 11.9987 11.3889 12.1179 10.8148 12.1179C10.5 12.1179 10.1975 12.0824 9.90741 12.0114C9.61728 11.9404 9.3534 11.8352 9.11574 11.6958C8.875 11.5539 8.6713 11.3802 8.50463 11.1749C8.33488 10.967 8.21605 10.7288 8.14815 10.4601H7C7.08642 10.858 7.24383 11.2142 7.47222 11.5285C7.70062 11.8428 7.98457 12.1103 8.32407 12.3308C8.66358 12.5488 9.04475 12.7148 9.46759 12.8289C9.88735 12.943 10.3364 13 10.8148 13C11.6235 13 12.3426 12.8378 12.9722 12.5133C13.6019 12.1888 14.0972 11.7275 14.4583 11.1293C14.8194 10.5311 15 9.82129 15 9C15 8.17871 14.8194 7.46895 14.4583 6.87072C14.0972 6.2725 13.6019 5.81115 12.9722 5.48669C12.3426 5.16223 11.6235 5 10.8148 5C10.3364 5 9.88735 5.05703 9.46759 5.1711C9.04475 5.28517 8.66358 5.45247 8.32407 5.673C7.98457 5.891 7.70062 6.15716 7.47222 6.47148C7.24383 6.78327 7.08642 7.13942 7 7.53992Z" fill="#DC2626" fill-opacity="0.15"/>
<path d="M7 59.5399H8.14815C8.21605 59.2687 8.33488 59.0304 8.50463 58.8251C8.6713 58.6198 8.875 58.4474 9.11574 58.308C9.3534 58.166 9.61728 58.0596 9.90741 57.9886C10.1975 57.9176 10.5 57.8821 10.8148 57.8821C11.3889 57.8821 11.909 58.0013 12.375 58.2395C12.838 58.4778 13.2068 58.8289 13.4815 59.2928C13.7531 59.7567 13.8889 60.3257 13.8889 61C13.8889 61.6743 13.7531 62.2433 13.4815 62.7072C13.2068 63.1711 12.838 63.5222 12.375 63.7605C11.909 63.9987 11.3889 64.1179 10.8148 64.1179C10.5 64.1179 10.1975 64.0824 9.90741 64.0114C9.61728 63.9404 9.3534 63.8352 9.11574 63.6958C8.875 63.5539 8.6713 63.3802 8.50463 63.1749C8.33488 62.967 8.21605 62.7288 8.14815 62.4601H7C7.08642 62.858 7.24383 63.2142 7.47222 63.5285C7.70062 63.8428 7.98457 64.1103 8.32407 64.3308C8.66358 64.5488 9.04475 64.7148 9.46759 64.8289C9.88735 64.943 10.3364 65 10.8148 65C11.6235 65 12.3426 64.8378 12.9722 64.5133C13.6019 64.1888 14.0972 63.7275 14.4583 63.1293C14.8194 62.5311 15 61.8213 15 61C15 60.1787 14.8194 59.4689 14.4583 58.8707C14.0972 58.2725 13.6019 57.8112 12.9722 57.4867C12.3426 57.1622 11.6235 57 10.8148 57C10.3364 57 9.88735 57.057 9.46759 57.1711C9.04475 57.2852 8.66358 57.4525 8.32407 57.673C7.98457 57.891 7.70062 58.1572 7.47222 58.4715C7.24383 58.7833 7.08642 59.1394 7 59.5399Z" fill="#DC2626" fill-opacity="0.15"/>
<path d="M85 36.5399H86.1481C86.216 36.2687 86.3349 36.0304 86.5046 35.8251C86.6713 35.6198 86.875 35.4474 87.1157 35.308C87.3534 35.166 87.6173 35.0596 87.9074 34.9886C88.1975 34.9176 88.5 34.8821 88.8148 34.8821C89.3889 34.8821 89.909 35.0013 90.375 35.2395C90.838 35.4778 91.2068 35.8289 91.4815 36.2928C91.7531 36.7567 91.8889 37.3257 91.8889 38C91.8889 38.6743 91.7531 39.2433 91.4815 39.7072C91.2068 40.1711 90.838 40.5222 90.375 40.7605C89.909 40.9987 89.3889 41.1179 88.8148 41.1179C88.5 41.1179 88.1975 41.0824 87.9074 41.0114C87.6173 40.9404 87.3534 40.8352 87.1157 40.6958C86.875 40.5539 86.6713 40.3802 86.5046 40.1749C86.3349 39.967 86.216 39.7288 86.1481 39.4601H85C85.0864 39.858 85.2438 40.2142 85.4722 40.5285C85.7006 40.8428 85.9846 41.1103 86.3241 41.3308C86.6636 41.5488 87.0448 41.7148 87.4676 41.8289C87.8873 41.943 88.3364 42 88.8148 42C89.6235 42 90.3426 41.8378 90.9722 41.5133C91.6019 41.1888 92.0972 40.7275 92.4583 40.1293C92.8194 39.5311 93 38.8213 93 38C93 37.1787 92.8194 36.4689 92.4583 35.8707C92.0972 35.2725 91.6019 34.8112 90.9722 34.4867C90.3426 34.1622 89.6235 34 88.8148 34C88.3364 34 87.8873 34.057 87.4676 34.1711C87.0448 34.2852 86.6636 34.4525 86.3241 34.673C85.9846 34.891 85.7006 35.1572 85.4722 35.4715C85.2438 35.7833 85.0864 36.1394 85 36.5399Z" fill="#DC2626" fill-opacity="0.15"/>
<path d="M72 29.5399H73.1481C73.216 29.2687 73.3349 29.0304 73.5046 28.8251C73.6713 28.6198 73.875 28.4474 74.1157 28.308C74.3534 28.166 74.6173 28.0596 74.9074 27.9886C75.1975 27.9176 75.5 27.8821 75.8148 27.8821C76.3889 27.8821 76.909 28.0013 77.375 28.2395C77.838 28.4778 78.2068 28.8289 78.4815 29.2928C78.7531 29.7567 78.8889 30.3257 78.8889 31C78.8889 31.6743 78.7531 32.2433 78.4815 32.7072C78.2068 33.1711 77.838 33.5222 77.375 33.7605C76.909 33.9987 76.3889 34.1179 75.8148 34.1179C75.5 34.1179 75.1975 34.0824 74.9074 34.0114C74.6173 33.9404 74.3534 33.8352 74.1157 33.6958C73.875 33.5539 73.6713 33.3802 73.5046 33.1749C73.3349 32.967 73.216 32.7288 73.1481 32.4601H72C72.0864 32.858 72.2438 33.2142 72.4722 33.5285C72.7006 33.8428 72.9846 34.1103 73.3241 34.3308C73.6636 34.5488 74.0448 34.7148 74.4676 34.8289C74.8873 34.943 75.3364 35 75.8148 35C76.6235 35 77.3426 34.8378 77.9722 34.5133C78.6019 34.1888 79.0972 33.7275 79.4583 33.1293C79.8194 32.5311 80 31.8213 80 31C80 30.1787 79.8194 29.4689 79.4583 28.8707C79.0972 28.2725 78.6019 27.8112 77.9722 27.4867C77.3426 27.1622 76.6235 27 75.8148 27C75.3364 27 74.8873 27.057 74.4676 27.1711C74.0448 27.2852 73.6636 27.4525 73.3241 27.673C72.9846 27.891 72.7006 28.1572 72.4722 28.4715C72.2438 28.7833 72.0864 29.1394 72 29.5399Z" fill="#DC2626" fill-opacity="0.15"/>
<path d="M59 19.5399H60.1481C60.216 19.2687 60.3349 19.0304 60.5046 18.8251C60.6713 18.6198 60.875 18.4474 61.1157 18.308C61.3534 18.166 61.6173 18.0596 61.9074 17.9886C62.1975 17.9176 62.5 17.8821 62.8148 17.8821C63.3889 17.8821 63.909 18.0013 64.375 18.2395C64.838 18.4778 65.2068 18.8289 65.4815 19.2928C65.7531 19.7567 65.8889 20.3257 65.8889 21C65.8889 21.6743 65.7531 22.2433 65.4815 22.7072C65.2068 23.1711 64.838 23.5222 64.375 23.7605C63.909 23.9987 63.3889 24.1179 62.8148 24.1179C62.5 24.1179 62.1975 24.0824 61.9074 24.0114C61.6173 23.9404 61.3534 23.8352 61.1157 23.6958C60.875 23.5539 60.6713 23.3802 60.5046 23.1749C60.3349 22.967 60.216 22.7288 60.1481 22.4601H59C59.0864 22.858 59.2438 23.2142 59.4722 23.5285C59.7006 23.8428 59.9846 24.1103 60.3241 24.3308C60.6636 24.5488 61.0448 24.7148 61.4676 24.8289C61.8873 24.943 62.3364 25 62.8148 25C63.6235 25 64.3426 24.8378 64.9722 24.5133C65.6019 24.1888 66.0972 23.7275 66.4583 23.1293C66.8194 22.5311 67 21.8213 67 21C67 20.1787 66.8194 19.4689 66.4583 18.8707C66.0972 18.2725 65.6019 17.8112 64.9722 17.4867C64.3426 17.1622 63.6235 17 62.8148 17C62.3364 17 61.8873 17.057 61.4676 17.1711C61.0448 17.2852 60.6636 17.4525 60.3241 17.673C59.9846 17.891 59.7006 18.1572 59.4722 18.4715C59.2438 18.7833 59.0864 19.1394 59 19.5399Z" fill="#DC2626" fill-opacity="0.15"/>
<path d="M46 6.53992H47.1481C47.216 6.26869 47.3349 6.03042 47.5046 5.8251C47.6713 5.61977 47.875 5.4474 48.1157 5.30799C48.3534 5.16603 48.6173 5.05957 48.9074 4.98859C49.1975 4.91762 49.5 4.88213 49.8148 4.88213C50.3889 4.88213 50.909 5.00127 51.375 5.23954C51.838 5.47782 52.2068 5.8289 52.4815 6.29278C52.7531 6.75665 52.8889 7.32573 52.8889 8C52.8889 8.67427 52.7531 9.24335 52.4815 9.70722C52.2068 10.1711 51.838 10.5222 51.375 10.7605C50.909 10.9987 50.3889 11.1179 49.8148 11.1179C49.5 11.1179 49.1975 11.0824 48.9074 11.0114C48.6173 10.9404 48.3534 10.8352 48.1157 10.6958C47.875 10.5539 47.6713 10.3802 47.5046 10.1749C47.3349 9.96705 47.216 9.72877 47.1481 9.46008H46C46.0864 9.85805 46.2438 10.2142 46.4722 10.5285C46.7006 10.8428 46.9846 11.1103 47.3241 11.3308C47.6636 11.5488 48.0448 11.7148 48.4676 11.8289C48.8873 11.943 49.3364 12 49.8148 12C50.6235 12 51.3426 11.8378 51.9722 11.5133C52.6019 11.1888 53.0972 10.7275 53.4583 10.1293C53.8194 9.53105 54 8.82129 54 8C54 7.17871 53.8194 6.46895 53.4583 5.87072C53.0972 5.2725 52.6019 4.81115 51.9722 4.48669C51.3426 4.16223 50.6235 4 49.8148 4C49.3364 4 48.8873 4.05703 48.4676 4.1711C48.0448 4.28517 47.6636 4.45247 47.3241 4.673C46.9846 4.891 46.7006 5.15716 46.4722 5.47148C46.2438 5.78327 46.0864 6.13942 46 6.53992Z" fill="#DC2626" fill-opacity="0.15"/>
<path d="M20 59.5399H21.1481C21.216 59.2687 21.3349 59.0304 21.5046 58.8251C21.6713 58.6198 21.875 58.4474 22.1157 58.308C22.3534 58.166 22.6173 58.0596 22.9074 57.9886C23.1975 57.9176 23.5 57.8821 23.8148 57.8821C24.3889 57.8821 24.909 58.0013 25.375 58.2395C25.838 58.4778 26.2068 58.8289 26.4815 59.2928C26.7531 59.7567 26.8889 60.3257 26.8889 61C26.8889 61.6743 26.7531 62.2433 26.4815 62.7072C26.2068 63.1711 25.838 63.5222 25.375 63.7605C24.909 63.9987 24.3889 64.1179 23.8148 64.1179C23.5 64.1179 23.1975 64.0824 22.9074 64.0114C22.6173 63.9404 22.3534 63.8352 22.1157 63.6958C21.875 63.5539 21.6713 63.3802 21.5046 63.1749C21.3349 62.967 21.216 62.7288 21.1481 62.4601H20C20.0864 62.858 20.2438 63.2142 20.4722 63.5285C20.7006 63.8428 20.9846 64.1103 21.3241 64.3308C21.6636 64.5488 22.0448 64.7148 22.4676 64.8289C22.8873 64.943 23.3364 65 23.8148 65C24.6235 65 25.3426 64.8378 25.9722 64.5133C26.6019 64.1888 27.0972 63.7275 27.4583 63.1293C27.8194 62.5311 28 61.8213 28 61C28 60.1787 27.8194 59.4689 27.4583 58.8707C27.0972 58.2725 26.6019 57.8112 25.9722 57.4867C25.3426 57.1622 24.6235 57 23.8148 57C23.3364 57 22.8873 57.057 22.4676 57.1711C22.0448 57.2852 21.6636 57.4525 21.3241 57.673C20.9846 57.891 20.7006 58.1572 20.4722 58.4715C20.2438 58.7833 20.0864 59.1394 20 59.5399Z" fill="#DC2626" fill-opacity="0.15"/>
<path d="M33 59.5399H34.1481C34.216 59.2687 34.3349 59.0304 34.5046 58.8251C34.6713 58.6198 34.875 58.4474 35.1157 58.308C35.3534 58.166 35.6173 58.0596 35.9074 57.9886C36.1975 57.9176 36.5 57.8821 36.8148 57.8821C37.3889 57.8821 37.909 58.0013 38.375 58.2395C38.838 58.4778 39.2068 58.8289 39.4815 59.2928C39.7531 59.7567 39.8889 60.3257 39.8889 61C39.8889 61.6743 39.7531 62.2433 39.4815 62.7072C39.2068 63.1711 38.838 63.5222 38.375 63.7605C37.909 63.9987 37.3889 64.1179 36.8148 64.1179C36.5 64.1179 36.1975 64.0824 35.9074 64.0114C35.6173 63.9404 35.3534 63.8352 35.1157 63.6958C34.875 63.5539 34.6713 63.3802 34.5046 63.1749C34.3349 62.967 34.216 62.7288 34.1481 62.4601H33C33.0864 62.858 33.2438 63.2142 33.4722 63.5285C33.7006 63.8428 33.9846 64.1103 34.3241 64.3308C34.6636 64.5488 35.0448 64.7148 35.4676 64.8289C35.8873 64.943 36.3364 65 36.8148 65C37.6235 65 38.3426 64.8378 38.9722 64.5133C39.6019 64.1888 40.0972 63.7275 40.4583 63.1293C40.8194 62.5311 41 61.8213 41 61C41 60.1787 40.8194 59.4689 40.4583 58.8707C40.0972 58.2725 39.6019 57.8112 38.9722 57.4867C38.3426 57.1622 37.6235 57 36.8148 57C36.3364 57 35.8873 57.057 35.4676 57.1711C35.0448 57.2852 34.6636 57.4525 34.3241 57.673C33.9846 57.891 33.7006 58.1572 33.4722 58.4715C33.2438 58.7833 33.0864 59.1394 33 59.5399Z" fill="#DC2626" fill-opacity="0.15"/>
<path d="M46 59.5399H47.1481C47.216 59.2687 47.3349 59.0304 47.5046 58.8251C47.6713 58.6198 47.875 58.4474 48.1157 58.308C48.3534 58.166 48.6173 58.0596 48.9074 57.9886C49.1975 57.9176 49.5 57.8821 49.8148 57.8821C50.3889 57.8821 50.909 58.0013 51.375 58.2395C51.838 58.4778 52.2068 58.8289 52.4815 59.2928C52.7531 59.7567 52.8889 60.3257 52.8889 61C52.8889 61.6743 52.7531 62.2433 52.4815 62.7072C52.2068 63.1711 51.838 63.5222 51.375 63.7605C50.909 63.9987 50.3889 64.1179 49.8148 64.1179C49.5 64.1179 49.1975 64.0824 48.9074 64.0114C48.6173 63.9404 48.3534 63.8352 48.1157 63.6958C47.875 63.5539 47.6713 63.3802 47.5046 63.1749C47.3349 62.967 47.216 62.7288 47.1481 62.4601H46C46.0864 62.858 46.2438 63.2142 46.4722 63.5285C46.7006 63.8428 46.9846 64.1103 47.3241 64.3308C47.6636 64.5488 48.0448 64.7148 48.4676 64.8289C48.8873 64.943 49.3364 65 49.8148 65C50.6235 65 51.3426 64.8378 51.9722 64.5133C52.6019 64.1888 53.0972 63.7275 53.4583 63.1293C53.8194 62.5311 54 61.8213 54 61C54 60.1787 53.8194 59.4689 53.4583 58.8707C53.0972 58.2725 52.6019 57.8112 51.9722 57.4867C51.3426 57.1622 50.6235 57 49.8148 57C49.3364 57 48.8873 57.057 48.4676 57.1711C48.0448 57.2852 47.6636 57.4525 47.3241 57.673C46.9846 57.891 46.7006 58.1572 46.4722 58.4715C46.2438 58.7833 46.0864 59.1394 46 59.5399Z" fill="#DC2626" fill-opacity="0.15"/>
<path d="M59 59.5399H60.1481C60.216 59.2687 60.3349 59.0304 60.5046 58.8251C60.6713 58.6198 60.875 58.4474 61.1157 58.308C61.3534 58.166 61.6173 58.0596 61.9074 57.9886C62.1975 57.9176 62.5 57.8821 62.8148 57.8821C63.3889 57.8821 63.909 58.0013 64.375 58.2395C64.838 58.4778 65.2068 58.8289 65.4815 59.2928C65.7531 59.7567 65.8889 60.3257 65.8889 61C65.8889 61.6743 65.7531 62.2433 65.4815 62.7072C65.2068 63.1711 64.838 63.5222 64.375 63.7605C63.909 63.9987 63.3889 64.1179 62.8148 64.1179C62.5 64.1179 62.1975 64.0824 61.9074 64.0114C61.6173 63.9404 61.3534 63.8352 61.1157 63.6958C60.875 63.5539 60.6713 63.3802 60.5046 63.1749C60.3349 62.967 60.216 62.7288 60.1481 62.4601H59C59.0864 62.858 59.2438 63.2142 59.4722 63.5285C59.7006 63.8428 59.9846 64.1103 60.3241 64.3308C60.6636 64.5488 61.0448 64.7148 61.4676 64.8289C61.8873 64.943 62.3364 65 62.8148 65C63.6235 65 64.3426 64.8378 64.9722 64.5133C65.6019 64.1888 66.0972 63.7275 66.4583 63.1293C66.8194 62.5311 67 61.8213 67 61C67 60.1787 66.8194 59.4689 66.4583 58.8707C66.0972 58.2725 65.6019 57.8112 64.9722 57.4867C64.3426 57.1622 63.6235 57 62.8148 57C62.3364 57 61.8873 57.057 61.4676 57.1711C61.0448 57.2852 60.6636 57.4525 60.3241 57.673C59.9846 57.891 59.7006 58.1572 59.4722 58.4715C59.2438 58.7833 59.0864 59.1394 59 59.5399Z" fill="#DC2626" fill-opacity="0.15"/>
<path d="M14 26V18H13.3467V25.1406H7V26H14Z" fill="#DC2626" fill-opacity="0.15"/>
<path d="M92 3V-5H91.3467V2.14062H85V3H92Z" fill="#DC2626" fill-opacity="0.15"/>
<path d="M27 26V18H26.3467V25.1406H20V26H27Z" fill="#DC2626" fill-opacity="0.15"/>
<path d="M7 38.1406V39H15V38.1406H11.6458V31H10.3542V38.1406H7Z" fill="#DC2626" fill-opacity="0.15"/>
<path d="M85 15.1406V16H93V15.1406H89.6458V8H88.3542V15.1406H85Z" fill="#DC2626" fill-opacity="0.15"/>
<path d="M72 8.14063V9H80V8.14063H76.6458V1H75.3542V8.14063H72Z" fill="#DC2626" fill-opacity="0.15"/>
<path d="M20 38.1406V39H28V38.1406H24.6458V31H23.3542V38.1406H20Z" fill="#DC2626" fill-opacity="0.15"/>
<path d="M33 38.1406V39H41V38.1406H37.6458V31H36.3542V38.1406H33Z" fill="#DC2626" fill-opacity="0.15"/>
<path d="M10.0402 52L7 44H7.99496L11.0351 52H10.0402Z" fill="#DC2626" fill-opacity="0.15"/>
<path d="M14.005 52L10.9649 44H11.9598L15 52H14.005Z" fill="#DC2626" fill-opacity="0.15"/>
<path d="M88.0402 29L85 21H85.995L89.0351 29H88.0402Z" fill="#DC2626" fill-opacity="0.15"/>
<path d="M92.005 29L88.9649 21H89.9598L93 29H92.005Z" fill="#DC2626" fill-opacity="0.15"/>
<path d="M75.0402 22L72 14H72.995L76.0351 22H75.0402Z" fill="#DC2626" fill-opacity="0.15"/>
<path d="M79.005 22L75.9649 14H76.9598L80 22H79.005Z" fill="#DC2626" fill-opacity="0.15"/>
<path d="M62.0402 12L59 4H59.995L63.0351 12H62.0402Z" fill="#DC2626" fill-opacity="0.15"/>
<path d="M66.005 12L62.9649 4H63.9598L67 12H66.005Z" fill="#DC2626" fill-opacity="0.15"/>
<path d="M23.0402 52L20 44H20.995L24.0351 52H23.0402Z" fill="#DC2626" fill-opacity="0.15"/>
<path d="M27.005 52L23.9649 44H24.9598L28 52H27.005Z" fill="#DC2626" fill-opacity="0.15"/>
<path d="M36.0402 52L33 44H33.995L37.0351 52H36.0402Z" fill="#DC2626" fill-opacity="0.15"/>
<path d="M40.005 52L36.9649 44H37.9598L41 52H40.005Z" fill="#DC2626" fill-opacity="0.15"/>
<path d="M49.0402 52L46 44H46.995L50.0351 52H49.0402Z" fill="#DC2626" fill-opacity="0.15"/>
<path d="M53.005 52L49.9649 44H50.9598L54 52H53.005Z" fill="#DC2626" fill-opacity="0.15"/>
<path d="M10.0402 85L7 77H7.99496L11.0351 85H10.0402Z" fill="#DC2626" fill-opacity="0.15"/>
<path d="M14.005 85L10.9649 77H11.9598L15 85H14.005Z" fill="#DC2626" fill-opacity="0.15"/>
<path d="M88.0402 62L85 54H85.995L89.0351 62H88.0402Z" fill="#DC2626" fill-opacity="0.15"/>
<path d="M92.005 62L88.9649 54H89.9598L93 62H92.005Z" fill="#DC2626" fill-opacity="0.15"/>
<path d="M75.0402 55L72 47H72.995L76.0351 55H75.0402Z" fill="#DC2626" fill-opacity="0.15"/>
<path d="M79.005 55L75.9649 47H76.9598L80 55H79.005Z" fill="#DC2626" fill-opacity="0.15"/>
<path d="M62.0402 45L59 37H59.995L63.0351 45H62.0402Z" fill="#DC2626" fill-opacity="0.15"/>
<path d="M66.005 45L62.9649 37H63.9598L67 45H66.005Z" fill="#DC2626" fill-opacity="0.15"/>
<path d="M49.0402 32L46 24H46.995L50.0351 32H49.0402Z" fill="#DC2626" fill-opacity="0.15"/>
<path d="M53.005 32L49.9649 24H50.9598L54 32H53.005Z" fill="#DC2626" fill-opacity="0.15"/>
<path d="M36.0402 17L33 9H33.995L37.0351 17H36.0402Z" fill="#DC2626" fill-opacity="0.15"/>
<path d="M40.005 17L36.9649 9H37.9598L41 17H40.005Z" fill="#DC2626" fill-opacity="0.15"/>
<path d="M23.0402 4L20 -4H20.995L24.0351 4H23.0402Z" fill="#DC2626" fill-opacity="0.15"/>
<path d="M27.005 4L23.9649 -4H24.9598L28 4H27.005Z" fill="#DC2626" fill-opacity="0.15"/>
<path d="M23.0402 85L20 77H20.995L24.0351 85H23.0402Z" fill="#DC2626" fill-opacity="0.15"/>
<path d="M27.005 85L23.9649 77H24.9598L28 85H27.005Z" fill="#DC2626" fill-opacity="0.15"/>
<path d="M36.0402 85L33 77H33.995L37.0351 85H36.0402Z" fill="#DC2626" fill-opacity="0.15"/>
<path d="M40.005 85L36.9649 77H37.9598L41 85H40.005Z" fill="#DC2626" fill-opacity="0.15"/>
<path d="M49.0402 85L46 77H46.995L50.0351 85H49.0402Z" fill="#DC2626" fill-opacity="0.15"/>
<path d="M53.005 85L49.9649 77H50.9598L54 85H53.005Z" fill="#DC2626" fill-opacity="0.15"/>
<path d="M62.0402 85L59 77H59.995L63.0351 85H62.0402Z" fill="#DC2626" fill-opacity="0.15"/>
<path d="M66.005 85L62.9649 77H63.9598L67 85H66.005Z" fill="#DC2626" fill-opacity="0.15"/>
<path d="M75.0402 85L72 77H72.995L76.0351 85H75.0402Z" fill="#DC2626" fill-opacity="0.15"/>
<path d="M79.005 85L75.9649 77H76.9598L80 85H79.005Z" fill="#DC2626" fill-opacity="0.15"/>
<path d="M88.0402 85L85 77H85.995L89.0351 85H88.0402Z" fill="#DC2626" fill-opacity="0.15"/>
<path d="M92.005 85L88.9649 77H89.9598L93 85H92.005Z" fill="#DC2626" fill-opacity="0.15"/>
<path d="M15 70V72H7V70H15Z" fill="#DC2626" fill-opacity="0.15"/>
<path d="M93 47V49H85V47H93Z" fill="#DC2626" fill-opacity="0.15"/>
<path d="M80 40V42H72V40H80Z" fill="#DC2626" fill-opacity="0.15"/>
<path d="M67 30V32H59V30H67Z" fill="#DC2626" fill-opacity="0.15"/>
<path d="M54 17V19H46V17H54Z" fill="#DC2626" fill-opacity="0.15"/>
<path d="M41 2V4H33V2H41Z" fill="#DC2626" fill-opacity="0.15"/>
<path d="M28 70V72H20V70H28Z" fill="#DC2626" fill-opacity="0.15"/>
<path d="M41 70V72H33V70H41Z" fill="#DC2626" fill-opacity="0.15"/>
<path d="M54 70V72H46V70H54Z" fill="#DC2626" fill-opacity="0.15"/>
<path d="M67 70V72H59V70H67Z" fill="#DC2626" fill-opacity="0.15"/>
<path d="M80 70V72H72V70H80Z" fill="#DC2626" fill-opacity="0.15"/>
<path d="M10.7169 95C11.6031 95 12.3662 94.8715 13.0062 94.6146C13.6462 94.3577 14.1385 94.0038 14.4831 93.5529C14.8277 93.102 15 92.5869 15 92.0076C15 91.4181 14.8236 90.898 14.4708 90.4471C14.1138 89.9937 13.6174 89.6398 12.9815 89.3854C12.3415 89.1285 11.5949 89 10.7415 89C10.0769 89 9.47795 89.0756 8.94462 89.2267C8.41128 89.3778 7.97436 89.5894 7.63385 89.8615C7.29333 90.1335 7.08205 90.4509 7 90.8136H8.45231C8.56308 90.5491 8.80923 90.3149 9.19077 90.1108C9.56821 89.9043 10.0769 89.801 10.7169 89.801C11.2831 89.801 11.7795 89.8917 12.2062 90.073C12.6287 90.2519 12.959 90.505 13.1969 90.8325C13.4308 91.1574 13.5477 91.539 13.5477 91.9773C13.5477 92.4257 13.4328 92.8161 13.2031 93.1486C12.9692 93.4811 12.641 93.7393 12.2185 93.9232C11.7918 94.1071 11.2913 94.199 10.7169 94.199C10.3395 94.199 9.99692 94.1587 9.68923 94.0781C9.38154 93.9975 9.12103 93.8816 8.90769 93.7305C8.69436 93.5793 8.54256 93.398 8.45231 93.1864H7C7.08205 93.529 7.28513 93.8375 7.60923 94.1121C7.92923 94.3841 8.35385 94.6008 8.88308 94.762C9.40821 94.9207 10.0195 95 10.7169 95Z" fill="#DC2626" fill-opacity="0.15"/>
<path d="M88.7169 72C89.6031 72 90.3662 71.8715 91.0062 71.6146C91.6462 71.3577 92.1385 71.0038 92.4831 70.5529C92.8277 70.102 93 69.5869 93 69.0076C93 68.4181 92.8236 67.898 92.4708 67.4471C92.1138 66.9937 91.6174 66.6398 90.9815 66.3854C90.3415 66.1285 89.5949 66 88.7415 66C88.0769 66 87.4779 66.0756 86.9446 66.2267C86.4113 66.3778 85.9744 66.5894 85.6338 66.8615C85.2933 67.1335 85.0821 67.4509 85 67.8136H86.4523C86.5631 67.5491 86.8092 67.3149 87.1908 67.1108C87.5682 66.9043 88.0769 66.801 88.7169 66.801C89.2831 66.801 89.7795 66.8917 90.2062 67.073C90.6287 67.2519 90.959 67.505 91.1969 67.8325C91.4308 68.1574 91.5477 68.539 91.5477 68.9773C91.5477 69.4257 91.4328 69.8161 91.2031 70.1486C90.9692 70.4811 90.641 70.7393 90.2185 70.9232C89.7918 71.1071 89.2913 71.199 88.7169 71.199C88.3395 71.199 87.9969 71.1587 87.6892 71.0781C87.3815 70.9975 87.121 70.8816 86.9077 70.7305C86.6944 70.5793 86.5426 70.398 86.4523 70.1864H85C85.0821 70.529 85.2851 70.8375 85.6092 71.1121C85.9292 71.3841 86.3538 71.6008 86.8831 71.762C87.4082 71.9207 88.0195 72 88.7169 72Z" fill="#DC2626" fill-opacity="0.15"/>
<path d="M75.7169 65C76.6031 65 77.3662 64.8715 78.0062 64.6146C78.6462 64.3577 79.1385 64.0038 79.4831 63.5529C79.8277 63.102 80 62.5869 80 62.0076C80 61.4181 79.8236 60.898 79.4708 60.4471C79.1138 59.9937 78.6174 59.6398 77.9815 59.3854C77.3415 59.1285 76.5949 59 75.7415 59C75.0769 59 74.4779 59.0756 73.9446 59.2267C73.4113 59.3778 72.9744 59.5894 72.6338 59.8615C72.2933 60.1335 72.0821 60.4509 72 60.8136H73.4523C73.5631 60.5491 73.8092 60.3149 74.1908 60.1108C74.5682 59.9043 75.0769 59.801 75.7169 59.801C76.2831 59.801 76.7795 59.8917 77.2062 60.073C77.6287 60.2519 77.959 60.505 78.1969 60.8325C78.4308 61.1574 78.5477 61.539 78.5477 61.9773C78.5477 62.4257 78.4328 62.8161 78.2031 63.1486C77.9692 63.4811 77.641 63.7393 77.2185 63.9232C76.7918 64.1071 76.2913 64.199 75.7169 64.199C75.3395 64.199 74.9969 64.1587 74.6892 64.0781C74.3815 63.9975 74.121 63.8816 73.9077 63.7305C73.6944 63.5793 73.5426 63.398 73.4523 63.1864H72C72.0821 63.529 72.2851 63.8375 72.6092 64.1121C72.9292 64.3841 73.3538 64.6008 73.8831 64.762C74.4082 64.9207 75.0195 65 75.7169 65Z" fill="#DC2626" fill-opacity="0.15"/>
<path d="M62.7169 55C63.6031 55 64.3662 54.8715 65.0062 54.6146C65.6462 54.3577 66.1385 54.0038 66.4831 53.5529C66.8277 53.102 67 52.5869 67 52.0076C67 51.4181 66.8236 50.898 66.4708 50.4471C66.1138 49.9937 65.6174 49.6398 64.9815 49.3854C64.3415 49.1285 63.5949 49 62.7415 49C62.0769 49 61.4779 49.0756 60.9446 49.2267C60.4113 49.3778 59.9744 49.5894 59.6338 49.8615C59.2933 50.1335 59.0821 50.4509 59 50.8136H60.4523C60.5631 50.5491 60.8092 50.3149 61.1908 50.1108C61.5682 49.9043 62.0769 49.801 62.7169 49.801C63.2831 49.801 63.7795 49.8917 64.2062 50.073C64.6287 50.2519 64.959 50.505 65.1969 50.8325C65.4308 51.1574 65.5477 51.539 65.5477 51.9773C65.5477 52.4257 65.4328 52.8161 65.2031 53.1486C64.9692 53.4811 64.641 53.7393 64.2185 53.9232C63.7918 54.1071 63.2913 54.199 62.7169 54.199C62.3395 54.199 61.9969 54.1587 61.6892 54.0781C61.3815 53.9975 61.121 53.8816 60.9077 53.7305C60.6944 53.5793 60.5426 53.398 60.4523 53.1864H59C59.0821 53.529 59.2851 53.8375 59.6092 54.1121C59.9292 54.3841 60.3538 54.6008 60.8831 54.762C61.4082 54.9207 62.0195 55 62.7169 55Z" fill="#DC2626" fill-opacity="0.15"/>
<path d="M49.7169 42C50.6031 42 51.3662 41.8715 52.0062 41.6146C52.6462 41.3577 53.1385 41.0038 53.4831 40.5529C53.8277 40.102 54 39.5869 54 39.0076C54 38.4181 53.8236 37.898 53.4708 37.4471C53.1138 36.9937 52.6174 36.6398 51.9815 36.3854C51.3415 36.1285 50.5949 36 49.7415 36C49.0769 36 48.4779 36.0756 47.9446 36.2267C47.4113 36.3778 46.9744 36.5894 46.6338 36.8615C46.2933 37.1335 46.0821 37.4509 46 37.8136H47.4523C47.5631 37.5491 47.8092 37.3149 48.1908 37.1108C48.5682 36.9043 49.0769 36.801 49.7169 36.801C50.2831 36.801 50.7795 36.8917 51.2062 37.073C51.6287 37.2519 51.959 37.505 52.1969 37.8325C52.4308 38.1574 52.5477 38.539 52.5477 38.9773C52.5477 39.4257 52.4328 39.8161 52.2031 40.1486C51.9692 40.4811 51.641 40.7393 51.2185 40.9232C50.7918 41.1071 50.2913 41.199 49.7169 41.199C49.3395 41.199 48.9969 41.1587 48.6892 41.0781C48.3815 40.9975 48.121 40.8816 47.9077 40.7305C47.6944 40.5793 47.5426 40.398 47.4523 40.1864H46C46.0821 40.529 46.2851 40.8375 46.6092 41.1121C46.9292 41.3841 47.3538 41.6008 47.8831 41.762C48.4082 41.9207 49.0195 42 49.7169 42Z" fill="#DC2626" fill-opacity="0.15"/>
<path d="M36.7169 27C37.6031 27 38.3662 26.8715 39.0062 26.6146C39.6462 26.3577 40.1385 26.0038 40.4831 25.5529C40.8277 25.102 41 24.5869 41 24.0076C41 23.4181 40.8236 22.898 40.4708 22.4471C40.1138 21.9937 39.6174 21.6398 38.9815 21.3854C38.3415 21.1285 37.5949 21 36.7415 21C36.0769 21 35.4779 21.0756 34.9446 21.2267C34.4113 21.3778 33.9744 21.5894 33.6338 21.8615C33.2933 22.1335 33.0821 22.4509 33 22.8136H34.4523C34.5631 22.5491 34.8092 22.3149 35.1908 22.1108C35.5682 21.9043 36.0769 21.801 36.7169 21.801C37.2831 21.801 37.7795 21.8917 38.2062 22.073C38.6287 22.2519 38.959 22.505 39.1969 22.8325C39.4308 23.1574 39.5477 23.539 39.5477 23.9773C39.5477 24.4257 39.4328 24.8161 39.2031 25.1486C38.9692 25.4811 38.641 25.7393 38.2185 25.9232C37.7918 26.1071 37.2913 26.199 36.7169 26.199C36.3395 26.199 35.9969 26.1587 35.6892 26.0781C35.3815 25.9975 35.121 25.8816 34.9077 25.7305C34.6944 25.5793 34.5426 25.398 34.4523 25.1864H33C33.0821 25.529 33.2851 25.8375 33.6092 26.1121C33.9292 26.3841 34.3538 26.6008 34.8831 26.762C35.4082 26.9207 36.0195 27 36.7169 27Z" fill="#DC2626" fill-opacity="0.15"/>
<path d="M23.7169 14C24.6031 14 25.3662 13.8715 26.0062 13.6146C26.6462 13.3577 27.1385 13.0038 27.4831 12.5529C27.8277 12.102 28 11.5869 28 11.0076C28 10.4181 27.8236 9.89798 27.4708 9.4471C27.1138 8.9937 26.6174 8.6398 25.9815 8.38539C25.3415 8.12846 24.5949 8 23.7415 8C23.0769 8 22.4779 8.07557 21.9446 8.2267C21.4113 8.37783 20.9744 8.58942 20.6338 8.86146C20.2933 9.1335 20.0821 9.45088 20 9.8136H21.4523C21.5631 9.54912 21.8092 9.31486 22.1908 9.11083C22.5682 8.90428 23.0769 8.80101 23.7169 8.80101C24.2831 8.80101 24.7795 8.89169 25.2062 9.07305C25.6287 9.25189 25.959 9.50504 26.1969 9.83249C26.4308 10.1574 26.5477 10.539 26.5477 10.9773C26.5477 11.4257 26.4328 11.8161 26.2031 12.1486C25.9692 12.4811 25.641 12.7393 25.2185 12.9232C24.7918 13.1071 24.2913 13.199 23.7169 13.199C23.3395 13.199 22.9969 13.1587 22.6892 13.0781C22.3815 12.9975 22.121 12.8816 21.9077 12.7305C21.6944 12.5793 21.5426 12.398 21.4523 12.1864H20C20.0821 12.529 20.2851 12.8375 20.6092 13.1121C20.9292 13.3841 21.3538 13.6008 21.8831 13.762C22.4082 13.9207 23.0195 14 23.7169 14Z" fill="#DC2626" fill-opacity="0.15"/>
<path d="M23.7169 95C24.6031 95 25.3662 94.8715 26.0062 94.6146C26.6462 94.3577 27.1385 94.0038 27.4831 93.5529C27.8277 93.102 28 92.5869 28 92.0076C28 91.4181 27.8236 90.898 27.4708 90.4471C27.1138 89.9937 26.6174 89.6398 25.9815 89.3854C25.3415 89.1285 24.5949 89 23.7415 89C23.0769 89 22.4779 89.0756 21.9446 89.2267C21.4113 89.3778 20.9744 89.5894 20.6338 89.8615C20.2933 90.1335 20.0821 90.4509 20 90.8136H21.4523C21.5631 90.5491 21.8092 90.3149 22.1908 90.1108C22.5682 89.9043 23.0769 89.801 23.7169 89.801C24.2831 89.801 24.7795 89.8917 25.2062 90.073C25.6287 90.2519 25.959 90.505 26.1969 90.8325C26.4308 91.1574 26.5477 91.539 26.5477 91.9773C26.5477 92.4257 26.4328 92.8161 26.2031 93.1486C25.9692 93.4811 25.641 93.7393 25.2185 93.9232C24.7918 94.1071 24.2913 94.199 23.7169 94.199C23.3395 94.199 22.9969 94.1587 22.6892 94.0781C22.3815 93.9975 22.121 93.8816 21.9077 93.7305C21.6944 93.5793 21.5426 93.398 21.4523 93.1864H20C20.0821 93.529 20.2851 93.8375 20.6092 94.1121C20.9292 94.3841 21.3538 94.6008 21.8831 94.762C22.4082 94.9207 23.0195 95 23.7169 95Z" fill="#DC2626" fill-opacity="0.15"/>
<path d="M36.7169 95C37.6031 95 38.3662 94.8715 39.0062 94.6146C39.6462 94.3577 40.1385 94.0038 40.4831 93.5529C40.8277 93.102 41 92.5869 41 92.0076C41 91.4181 40.8236 90.898 40.4708 90.4471C40.1138 89.9937 39.6174 89.6398 38.9815 89.3854C38.3415 89.1285 37.5949 89 36.7415 89C36.0769 89 35.4779 89.0756 34.9446 89.2267C34.4113 89.3778 33.9744 89.5894 33.6338 89.8615C33.2933 90.1335 33.0821 90.4509 33 90.8136H34.4523C34.5631 90.5491 34.8092 90.3149 35.1908 90.1108C35.5682 89.9043 36.0769 89.801 36.7169 89.801C37.2831 89.801 37.7795 89.8917 38.2062 90.073C38.6287 90.2519 38.959 90.505 39.1969 90.8325C39.4308 91.1574 39.5477 91.539 39.5477 91.9773C39.5477 92.4257 39.4328 92.8161 39.2031 93.1486C38.9692 93.4811 38.641 93.7393 38.2185 93.9232C37.7918 94.1071 37.2913 94.199 36.7169 94.199C36.3395 94.199 35.9969 94.1587 35.6892 94.0781C35.3815 93.9975 35.121 93.8816 34.9077 93.7305C34.6944 93.5793 34.5426 93.398 34.4523 93.1864H33C33.0821 93.529 33.2851 93.8375 33.6092 94.1121C33.9292 94.3841 34.3538 94.6008 34.8831 94.762C35.4082 94.9207 36.0195 95 36.7169 95Z" fill="#DC2626" fill-opacity="0.15"/>
<path d="M49.7169 95C50.6031 95 51.3662 94.8715 52.0062 94.6146C52.6462 94.3577 53.1385 94.0038 53.4831 93.5529C53.8277 93.102 54 92.5869 54 92.0076C54 91.4181 53.8236 90.898 53.4708 90.4471C53.1138 89.9937 52.6174 89.6398 51.9815 89.3854C51.3415 89.1285 50.5949 89 49.7415 89C49.0769 89 48.4779 89.0756 47.9446 89.2267C47.4113 89.3778 46.9744 89.5894 46.6338 89.8615C46.2933 90.1335 46.0821 90.4509 46 90.8136H47.4523C47.5631 90.5491 47.8092 90.3149 48.1908 90.1108C48.5682 89.9043 49.0769 89.801 49.7169 89.801C50.2831 89.801 50.7795 89.8917 51.2062 90.073C51.6287 90.2519 51.959 90.505 52.1969 90.8325C52.4308 91.1574 52.5477 91.539 52.5477 91.9773C52.5477 92.4257 52.4328 92.8161 52.2031 93.1486C51.9692 93.4811 51.641 93.7393 51.2185 93.9232C50.7918 94.1071 50.2913 94.199 49.7169 94.199C49.3395 94.199 48.9969 94.1587 48.6892 94.0781C48.3815 93.9975 48.121 93.8816 47.9077 93.7305C47.6944 93.5793 47.5426 93.398 47.4523 93.1864H46C46.0821 93.529 46.2851 93.8375 46.6092 94.1121C46.9292 94.3841 47.3538 94.6008 47.8831 94.762C48.4082 94.9207 49.0195 95 49.7169 95Z" fill="#DC2626" fill-opacity="0.15"/>
<path d="M62.7169 95C63.6031 95 64.3662 94.8715 65.0062 94.6146C65.6462 94.3577 66.1385 94.0038 66.4831 93.5529C66.8277 93.102 67 92.5869 67 92.0076C67 91.4181 66.8236 90.898 66.4708 90.4471C66.1138 89.9937 65.6174 89.6398 64.9815 89.3854C64.3415 89.1285 63.5949 89 62.7415 89C62.0769 89 61.4779 89.0756 60.9446 89.2267C60.4113 89.3778 59.9744 89.5894 59.6338 89.8615C59.2933 90.1335 59.0821 90.4509 59 90.8136H60.4523C60.5631 90.5491 60.8092 90.3149 61.1908 90.1108C61.5682 89.9043 62.0769 89.801 62.7169 89.801C63.2831 89.801 63.7795 89.8917 64.2062 90.073C64.6287 90.2519 64.959 90.505 65.1969 90.8325C65.4308 91.1574 65.5477 91.539 65.5477 91.9773C65.5477 92.4257 65.4328 92.8161 65.2031 93.1486C64.9692 93.4811 64.641 93.7393 64.2185 93.9232C63.7918 94.1071 63.2913 94.199 62.7169 94.199C62.3395 94.199 61.9969 94.1587 61.6892 94.0781C61.3815 93.9975 61.121 93.8816 60.9077 93.7305C60.6944 93.5793 60.5426 93.398 60.4523 93.1864H59C59.0821 93.529 59.2851 93.8375 59.6092 94.1121C59.9292 94.3841 60.3538 94.6008 60.8831 94.762C61.4082 94.9207 62.0195 95 62.7169 95Z" fill="#DC2626" fill-opacity="0.15"/>
<path d="M75.7169 95C76.6031 95 77.3662 94.8715 78.0062 94.6146C78.6462 94.3577 79.1385 94.0038 79.4831 93.5529C79.8277 93.102 80 92.5869 80 92.0076C80 91.4181 79.8236 90.898 79.4708 90.4471C79.1138 89.9937 78.6174 89.6398 77.9815 89.3854C77.3415 89.1285 76.5949 89 75.7415 89C75.0769 89 74.4779 89.0756 73.9446 89.2267C73.4113 89.3778 72.9744 89.5894 72.6338 89.8615C72.2933 90.1335 72.0821 90.4509 72 90.8136H73.4523C73.5631 90.5491 73.8092 90.3149 74.1908 90.1108C74.5682 89.9043 75.0769 89.801 75.7169 89.801C76.2831 89.801 76.7795 89.8917 77.2062 90.073C77.6287 90.2519 77.959 90.505 78.1969 90.8325C78.4308 91.1574 78.5477 91.539 78.5477 91.9773C78.5477 92.4257 78.4328 92.8161 78.2031 93.1486C77.9692 93.4811 77.641 93.7393 77.2185 93.9232C76.7918 94.1071 76.2913 94.199 75.7169 94.199C75.3395 94.199 74.9969 94.1587 74.6892 94.0781C74.3815 93.9975 74.121 93.8816 73.9077 93.7305C73.6944 93.5793 73.5426 93.398 73.4523 93.1864H72C72.0821 93.529 72.2851 93.8375 72.6092 94.1121C72.9292 94.3841 73.3538 94.6008 73.8831 94.762C74.4082 94.9207 75.0195 95 75.7169 95Z" fill="#DC2626" fill-opacity="0.15"/>
<path d="M88.7169 95C89.6031 95 90.3662 94.8715 91.0062 94.6146C91.6462 94.3577 92.1385 94.0038 92.4831 93.5529C92.8277 93.102 93 92.5869 93 92.0076C93 91.4181 92.8236 90.898 92.4708 90.4471C92.1138 89.9937 91.6174 89.6398 90.9815 89.3854C90.3415 89.1285 89.5949 89 88.7415 89C88.0769 89 87.4779 89.0756 86.9446 89.2267C86.4113 89.3778 85.9744 89.5894 85.6338 89.8615C85.2933 90.1335 85.0821 90.4509 85 90.8136H86.4523C86.5631 90.5491 86.8092 90.3149 87.1908 90.1108C87.5682 89.9043 88.0769 89.801 88.7169 89.801C89.2831 89.801 89.7795 89.8917 90.2062 90.073C90.6287 90.2519 90.959 90.505 91.1969 90.8325C91.4308 91.1574 91.5477 91.539 91.5477 91.9773C91.5477 92.4257 91.4328 92.8161 91.2031 93.1486C90.9692 93.4811 90.641 93.7393 90.2185 93.9232C89.7918 94.1071 89.2913 94.199 88.7169 94.199C88.3395 94.199 87.9969 94.1587 87.6892 94.0781C87.3815 93.9975 87.121 93.8816 86.9077 93.7305C86.6944 93.5793 86.5426 93.398 86.4523 93.1864H85C85.0821 93.529 85.2851 93.8375 85.6092 94.1121C85.9292 94.3841 86.3538 94.6008 86.8831 94.762C87.4082 94.9207 88.0195 95 88.7169 95Z" fill="#DC2626" fill-opacity="0.15"/>
</g>
<defs>
<clipPath id="clip0_533_15">
<rect width="100" height="100" fill="white"/>
</clipPath>
</defs>
</svg>
