<svg width="200" height="200" viewBox="0 0 200 200" fill="none" xmlns="http://www.w3.org/2000/svg">
<path d="M31.8191 20.4076L17.664 34.5626C17.3724 34.8542 17.0013 35 16.5507 35C16.1001 35 15.729 34.8542 15.4374 34.5626C15.1458 34.271 15 33.8999 15 33.4493C15 32.9987 15.1458 32.6276 15.4374 32.336L29.5924 18.1809H17.505C17.0543 18.1809 16.6766 18.0285 16.3718 17.7237C16.0669 17.4188 15.9145 17.0411 15.9145 16.5905C15.9145 16.1398 16.0669 15.7621 16.3718 15.4573C16.6766 15.1524 17.0543 15 17.505 15H33.4095C33.8602 15 34.2379 15.1524 34.5427 15.4573C34.8476 15.7621 35 16.1398 35 16.5905V32.495C35 32.9457 34.8476 33.3234 34.5427 33.6282C34.2379 33.9331 33.8602 34.0855 33.4095 34.0855C32.9589 34.0855 32.5812 33.9331 32.2763 33.6282C31.9715 33.3234 31.8191 32.9457 31.8191 32.495V20.4076Z" fill="#DC2626" fill-opacity="0.15"/>
<path d="M81.8191 70.4076L67.664 84.5626C67.3724 84.8542 67.0013 85 66.5507 85C66.1001 85 65.729 84.8542 65.4374 84.5626C65.1458 84.271 65 83.8999 65 83.4493C65 82.9987 65.1458 82.6276 65.4374 82.336L79.5924 68.1809H67.505C67.0543 68.1809 66.6766 68.0285 66.3718 67.7237C66.0669 67.4188 65.9145 67.0411 65.9145 66.5905C65.9145 66.1398 66.0669 65.7621 66.3718 65.4573C66.6766 65.1524 67.0543 65 67.505 65H83.4095C83.8602 65 84.2379 65.1524 84.5427 65.4573C84.8476 65.7621 85 66.1398 85 66.5905V82.495C85 82.9457 84.8476 83.3234 84.5427 83.6282C84.2379 83.9331 83.8602 84.0855 83.4095 84.0855C82.9589 84.0855 82.5812 83.9331 82.2763 83.6282C81.9715 83.3234 81.8191 82.9457 81.8191 82.495V70.4076Z" fill="#DC2626" fill-opacity="0.15"/>
<path d="M131.819 20.4076L117.664 34.5626C117.372 34.8542 117.001 35 116.551 35C116.1 35 115.729 34.8542 115.437 34.5626C115.146 34.271 115 33.8999 115 33.4493C115 32.9987 115.146 32.6276 115.437 32.336L129.592 18.1809H117.505C117.054 18.1809 116.677 18.0285 116.372 17.7237C116.067 17.4188 115.915 17.0411 115.915 16.5905C115.915 16.1398 116.067 15.7621 116.372 15.4573C116.677 15.1524 117.054 15 117.505 15H133.41C133.86 15 134.238 15.1524 134.543 15.4573C134.848 15.7621 135 16.1398 135 16.5905V32.495C135 32.9457 134.848 33.3234 134.543 33.6282C134.238 33.9331 133.86 34.0855 133.41 34.0855C132.959 34.0855 132.581 33.9331 132.276 33.6282C131.972 33.3234 131.819 32.9457 131.819 32.495V20.4076Z" fill="#DC2626" fill-opacity="0.15"/>
<path d="M181.819 70.4076L167.664 84.5626C167.372 84.8542 167.001 85 166.551 85C166.1 85 165.729 84.8542 165.437 84.5626C165.146 84.271 165 83.8999 165 83.4493C165 82.9987 165.146 82.6276 165.437 82.336L179.592 68.1809H167.505C167.054 68.1809 166.677 68.0285 166.372 67.7237C166.067 67.4188 165.915 67.0411 165.915 66.5905C165.915 66.1398 166.067 65.7621 166.372 65.4573C166.677 65.1524 167.054 65 167.505 65H183.41C183.86 65 184.238 65.1524 184.543 65.4573C184.848 65.7621 185 66.1398 185 66.5905V82.495C185 82.9457 184.848 83.3234 184.543 83.6282C184.238 83.9331 183.86 84.0855 183.41 84.0855C182.959 84.0855 182.581 83.9331 182.276 83.6282C181.972 83.3234 181.819 82.9457 181.819 82.495V70.4076Z" fill="#DC2626" fill-opacity="0.15"/>
<path d="M81.8191 170.408L67.664 184.563C67.3724 184.854 67.0013 185 66.5507 185C66.1001 185 65.729 184.854 65.4374 184.563C65.1458 184.271 65 183.9 65 183.449C65 182.999 65.1458 182.628 65.4374 182.336L79.5924 168.181H67.505C67.0543 168.181 66.6766 168.028 66.3718 167.724C66.0669 167.419 65.9145 167.041 65.9145 166.59C65.9145 166.14 66.0669 165.762 66.3718 165.457C66.6766 165.152 67.0543 165 67.505 165H83.4095C83.8602 165 84.2379 165.152 84.5427 165.457C84.8476 165.762 85 166.14 85 166.59V182.495C85 182.946 84.8476 183.323 84.5427 183.628C84.2379 183.933 83.8602 184.085 83.4095 184.085C82.9589 184.085 82.5812 183.933 82.2763 183.628C81.9715 183.323 81.8191 182.946 81.8191 182.495V170.408Z" fill="#DC2626" fill-opacity="0.15"/>
<path d="M118.181 179.592L132.336 165.437C132.628 165.146 132.999 165 133.449 165C133.9 165 134.271 165.146 134.563 165.437C134.854 165.729 135 166.1 135 166.551C135 167.001 134.854 167.372 134.563 167.664L120.408 181.819H132.495C132.946 181.819 133.323 181.972 133.628 182.276C133.933 182.581 134.085 182.959 134.085 183.41C134.085 183.86 133.933 184.238 133.628 184.543C133.323 184.848 132.946 185 132.495 185H116.59C116.14 185 115.762 184.848 115.457 184.543C115.152 184.238 115 183.86 115 183.41V167.505C115 167.054 115.152 166.677 115.457 166.372C115.762 166.067 116.14 165.915 116.59 165.915C117.041 165.915 117.419 166.067 117.724 166.372C118.028 166.677 118.181 167.054 118.181 167.505V179.592Z" fill="#DC2626" fill-opacity="0.15"/>
<path d="M131.819 120.408L117.664 134.563C117.372 134.854 117.001 135 116.551 135C116.1 135 115.729 134.854 115.437 134.563C115.146 134.271 115 133.9 115 133.449C115 132.999 115.146 132.628 115.437 132.336L129.592 118.181H117.505C117.054 118.181 116.677 118.028 116.372 117.724C116.067 117.419 115.915 117.041 115.915 116.59C115.915 116.14 116.067 115.762 116.372 115.457C116.677 115.152 117.054 115 117.505 115H133.41C133.86 115 134.238 115.152 134.543 115.457C134.848 115.762 135 116.14 135 116.59V132.495C135 132.946 134.848 133.323 134.543 133.628C134.238 133.933 133.86 134.085 133.41 134.085C132.959 134.085 132.581 133.933 132.276 133.628C131.972 133.323 131.819 132.946 131.819 132.495V120.408Z" fill="#DC2626" fill-opacity="0.15"/>
<path d="M181.819 170.408L167.664 184.563C167.372 184.854 167.001 185 166.551 185C166.1 185 165.729 184.854 165.437 184.563C165.146 184.271 165 183.9 165 183.449C165 182.999 165.146 182.628 165.437 182.336L179.592 168.181H167.505C167.054 168.181 166.677 168.028 166.372 167.724C166.067 167.419 165.915 167.041 165.915 166.59C165.915 166.14 166.067 165.762 166.372 165.457C166.677 165.152 167.054 165 167.505 165H183.41C183.86 165 184.238 165.152 184.543 165.457C184.848 165.762 185 166.14 185 166.59V182.495C185 182.946 184.848 183.323 184.543 183.628C184.238 183.933 183.86 184.085 183.41 184.085C182.959 184.085 182.581 183.933 182.276 183.628C181.972 183.323 181.819 182.946 181.819 182.495V170.408Z" fill="#DC2626" fill-opacity="0.15"/>
<path d="M31.8191 120.408L17.664 134.563C17.3724 134.854 17.0013 135 16.5507 135C16.1001 135 15.729 134.854 15.4374 134.563C15.1458 134.271 15 133.9 15 133.449C15 132.999 15.1458 132.628 15.4374 132.336L29.5924 118.181H17.505C17.0543 118.181 16.6766 118.028 16.3718 117.724C16.0669 117.419 15.9145 117.041 15.9145 116.59C15.9145 116.14 16.0669 115.762 16.3718 115.457C16.6766 115.152 17.0543 115 17.505 115H33.4095C33.8602 115 34.2379 115.152 34.5427 115.457C34.8476 115.762 35 116.14 35 116.59V132.495C35 132.946 34.8476 133.323 34.5427 133.628C34.2379 133.933 33.8602 134.085 33.4095 134.085C32.9589 134.085 32.5812 133.933 32.2763 133.628C31.9715 133.323 31.8191 132.946 31.8191 132.495V120.408Z" fill="#DC2626" fill-opacity="0.15"/>
<path d="M18.1809 79.5924L32.336 65.4374C32.6276 65.1458 32.9987 65 33.4493 65C33.8999 65 34.271 65.1458 34.5626 65.4374C34.8542 65.729 35 66.1001 35 66.5507C35 67.0013 34.8542 67.3724 34.5626 67.664L20.4076 81.8191H32.495C32.9457 81.8191 33.3234 81.9715 33.6282 82.2763C33.9331 82.5812 34.0855 82.9589 34.0855 83.4095C34.0855 83.8602 33.9331 84.2379 33.6282 84.5427C33.3234 84.8476 32.9457 85 32.495 85H16.5905C16.1398 85 15.7621 84.8476 15.4573 84.5427C15.1524 84.2379 15 83.8602 15 83.4095L15 67.505C15 67.0543 15.1524 66.6766 15.4573 66.3718C15.7621 66.0669 16.1398 65.9145 16.5905 65.9145C17.0411 65.9145 17.4188 66.0669 17.7237 66.3718C18.0285 66.6766 18.1809 67.0543 18.1809 67.505L18.1809 79.5924Z" fill="#DC2626" fill-opacity="0.15"/>
<path d="M68.1809 29.5924L82.336 15.4374C82.6276 15.1458 82.9987 15 83.4493 15C83.8999 15 84.271 15.1458 84.5626 15.4374C84.8542 15.729 85 16.1001 85 16.5507C85 17.0013 84.8542 17.3724 84.5626 17.664L70.4076 31.8191H82.495C82.9457 31.8191 83.3234 31.9715 83.6282 32.2763C83.9331 32.5812 84.0855 32.9589 84.0855 33.4095C84.0855 33.8602 83.9331 34.2379 83.6282 34.5427C83.3234 34.8476 82.9457 35 82.495 35H66.5905C66.1398 35 65.7621 34.8476 65.4573 34.5427C65.1524 34.2379 65 33.8602 65 33.4095V17.505C65 17.0543 65.1524 16.6766 65.4573 16.3718C65.7621 16.0669 66.1398 15.9145 66.5905 15.9145C67.0411 15.9145 67.4188 16.0669 67.7237 16.3718C68.0285 16.6766 68.1809 17.0543 68.1809 17.505V29.5924Z" fill="#DC2626" fill-opacity="0.15"/>
<path d="M68.1809 129.592L82.336 115.437C82.6276 115.146 82.9987 115 83.4493 115C83.8999 115 84.271 115.146 84.5626 115.437C84.8542 115.729 85 116.1 85 116.551C85 117.001 84.8542 117.372 84.5626 117.664L70.4076 131.819H82.495C82.9457 131.819 83.3234 131.972 83.6282 132.276C83.9331 132.581 84.0855 132.959 84.0855 133.41C84.0855 133.86 83.9331 134.238 83.6282 134.543C83.3234 134.848 82.9457 135 82.495 135H66.5905C66.1398 135 65.7621 134.848 65.4573 134.543C65.1524 134.238 65 133.86 65 133.41V117.505C65 117.054 65.1524 116.677 65.4573 116.372C65.7621 116.067 66.1398 115.915 66.5905 115.915C67.0411 115.915 67.4188 116.067 67.7237 116.372C68.0285 116.677 68.1809 117.054 68.1809 117.505V129.592Z" fill="#DC2626" fill-opacity="0.15"/>
<path d="M118.181 79.5924L132.336 65.4374C132.628 65.1458 132.999 65 133.449 65C133.9 65 134.271 65.1458 134.563 65.4374C134.854 65.729 135 66.1001 135 66.5507C135 67.0013 134.854 67.3724 134.563 67.664L120.408 81.8191H132.495C132.946 81.8191 133.323 81.9715 133.628 82.2763C133.933 82.5812 134.085 82.9589 134.085 83.4095C134.085 83.8602 133.933 84.2379 133.628 84.5427C133.323 84.8476 132.946 85 132.495 85H116.59C116.14 85 115.762 84.8476 115.457 84.5427C115.152 84.2379 115 83.8602 115 83.4095V67.505C115 67.0543 115.152 66.6766 115.457 66.3718C115.762 66.0669 116.14 65.9145 116.59 65.9145C117.041 65.9145 117.419 66.0669 117.724 66.3718C118.028 66.6766 118.181 67.0543 118.181 67.505V79.5924Z" fill="#DC2626" fill-opacity="0.15"/>
<path d="M168.181 29.5924L182.336 15.4374C182.628 15.1458 182.999 15 183.449 15C183.9 15 184.271 15.1458 184.563 15.4374C184.854 15.729 185 16.1001 185 16.5507C185 17.0013 184.854 17.3724 184.563 17.664L170.408 31.8191H182.495C182.946 31.8191 183.323 31.9715 183.628 32.2763C183.933 32.5812 184.085 32.9589 184.085 33.4095C184.085 33.8602 183.933 34.2379 183.628 34.5427C183.323 34.8476 182.946 35 182.495 35H166.59C166.14 35 165.762 34.8476 165.457 34.5427C165.152 34.2379 165 33.8602 165 33.4095V17.505C165 17.0543 165.152 16.6766 165.457 16.3718C165.762 16.0669 166.14 15.9145 166.59 15.9145C167.041 15.9145 167.419 16.0669 167.724 16.3718C168.028 16.6766 168.181 17.0543 168.181 17.505V29.5924Z" fill="#DC2626" fill-opacity="0.15"/>
<path d="M168.181 129.592L182.336 115.437C182.628 115.146 182.999 115 183.449 115C183.9 115 184.271 115.146 184.563 115.437C184.854 115.729 185 116.1 185 116.551C185 117.001 184.854 117.372 184.563 117.664L170.408 131.819H182.495C182.946 131.819 183.323 131.972 183.628 132.276C183.933 132.581 184.085 132.959 184.085 133.41C184.085 133.86 183.933 134.238 183.628 134.543C183.323 134.848 182.946 135 182.495 135H166.59C166.14 135 165.762 134.848 165.457 134.543C165.152 134.238 165 133.86 165 133.41V117.505C165 117.054 165.152 116.677 165.457 116.372C165.762 116.067 166.14 115.915 166.59 115.915C167.041 115.915 167.419 116.067 167.724 116.372C168.028 116.677 168.181 117.054 168.181 117.505V129.592Z" fill="#DC2626" fill-opacity="0.15"/>
<path d="M18.1809 179.592L32.336 165.437C32.6276 165.146 32.9987 165 33.4493 165C33.8999 165 34.271 165.146 34.5626 165.437C34.8542 165.729 35 166.1 35 166.551C35 167.001 34.8542 167.372 34.5626 167.664L20.4076 181.819H32.495C32.9457 181.819 33.3234 181.972 33.6282 182.276C33.9331 182.581 34.0855 182.959 34.0855 183.41C34.0855 183.86 33.9331 184.238 33.6282 184.543C33.3234 184.848 32.9457 185 32.495 185H16.5905C16.1398 185 15.7621 184.848 15.4573 184.543C15.1524 184.238 15 183.86 15 183.41L15 167.505C15 167.054 15.1524 166.677 15.4573 166.372C15.7621 166.067 16.1398 165.915 16.5905 165.915C17.0411 165.915 17.4188 166.067 17.7237 166.372C18.0285 166.677 18.1809 167.054 18.1809 167.505L18.1809 179.592Z" fill="#DC2626" fill-opacity="0.15"/>
</svg>
