<svg width="40" height="183" viewBox="0 0 40 183" fill="none" xmlns="http://www.w3.org/2000/svg">
<path d="M25.0801 118.19C21.9001 116.23 18.96 113.97 16.1901 111.52C14.5901 110.1 13.06 108.58 11.61 107C8.84003 110.29 6.45005 113.9 4.60005 117.79C1.51006 124.27 -0.00995098 131.46 4.9018e-05 138.63V182.93L39.23 167.65V124.28C37.87 123.92 36.51 123.52 35.18 123.04C31.65 121.79 28.2701 120.15 25.0901 118.19H25.0801Z" fill="#FF0000" fill-opacity="0.2"/>
<path d="M0.0100098 38.73C0.27001 39.45 0.419983 40.22 0.419983 41.04V90.22C1.77998 90.58 3.14003 90.98 4.47003 91.46C8.00003 92.71 11.38 94.35 14.56 96.31C17.74 98.27 20.68 100.53 23.45 102.98C25.05 104.4 26.58 105.92 28.03 107.5C30.8 104.21 33.19 100.6 35.04 96.71C38.13 90.23 39.65 83.04 39.64 75.87V36.34C39.64 20.7 30.84 7.02 17.94 0L0 38.73H0.0100098Z" fill="#FF0000"/>
</svg>
